<svg xmlns="http://www.w3.org/2000/svg" viewBox="0 0 560 560" id="plex-icon-sidebar-movies-560" aria-hidden="true" class="PlexIcon-plexIcon-8Tamaj"><path d="M560 40c0-11.038-8.962-20-20-20H20C8.962 20 0 28.962 0 40v480c0 11.038 8.962 20 20 20h520c11.038 0 20-8.962 20-20V40zM100 468v24c0 4.415-3.585 8-8 8H68c-4.415 0-8-3.585-8-8v-24c0-4.415 3.585-8 8-8h24c4.415 0 8 3.585 8 8zm400 0v24c0 4.415-3.585 8-8 8h-24c-4.415 0-8-3.585-8-8v-24c0-4.415 3.585-8 8-8h24c4.415 0 8 3.585 8 8zM400 310v180c0 5.52-4.48 10-10 10H170c-5.52 0-10-4.48-10-10V310c0-5.52 4.48-10 10-10h220c5.52 0 10 4.48 10 10zm100 78v24c0 4.415-3.585 8-8 8h-24c-4.415 0-8-3.585-8-8v-24c0-4.415 3.585-8 8-8h24c4.415 0 8 3.585 8 8zm-400 0v24c0 4.415-3.585 8-8 8H68c-4.415 0-8-3.585-8-8v-24c0-4.415 3.585-8 8-8h24c4.415 0 8 3.585 8 8zm0-80v24c0 4.415-3.585 8-8 8H68c-4.415 0-8-3.585-8-8v-24c0-4.415 3.585-8 8-8h24c4.415 0 8 3.585 8 8zm400 0v24c0 4.415-3.585 8-8 8h-24c-4.415 0-8-3.585-8-8v-24c0-4.415 3.585-8 8-8h24c4.415 0 8 3.585 8 8zM400 70v180c0 5.52-4.48 10-10 10H170c-5.52 0-10-4.48-10-10V70c0-5.52 4.48-10 10-10h220c5.52 0 10 4.48 10 10zm100 158v24c0 4.415-3.585 8-8 8h-24c-4.415 0-8-3.585-8-8v-24c0-4.415 3.585-8 8-8h24c4.415 0 8 3.585 8 8zm-400 0v24c0 4.415-3.585 8-8 8H68c-4.415 0-8-3.585-8-8v-24c0-4.415 3.585-8 8-8h24c4.415 0 8 3.585 8 8zm0-80v24c0 4.415-3.585 8-8 8H68c-4.415 0-8-3.585-8-8v-24c0-4.415 3.585-8 8-8h24c4.415 0 8 3.585 8 8zm400 0v24c0 4.415-3.585 8-8 8h-24c-4.415 0-8-3.585-8-8v-24c0-4.415 3.585-8 8-8h24c4.415 0 8 3.585 8 8zm0-80v24c0 4.415-3.585 8-8 8h-24c-4.415 0-8-3.585-8-8V68c0-4.415 3.585-8 8-8h24c4.415 0 8 3.585 8 8zm-400 0v24c0 4.415-3.585 8-8 8H68c-4.415 0-8-3.585-8-8V68c0-4.415 3.585-8 8-8h24c4.415 0 8 3.585 8 8z"></path></svg>