<svg xmlns="http://www.w3.org/2000/svg" viewBox="0 0 560 560" id="plex-icon-sidebar-shows-560" aria-hidden="true" class="PlexIcon-plexIcon-8Tamaj"><path d="M440 480c0-11.038-8.962-20-20-20H140c-11.038 0-20 8.962-20 20v20c0 11.038 8.962 20 20 20h280c11.038 0 20-8.962 20-20v-20zM540 40H20C8.962 40 0 48.962 0 60v360c0 11.038 8.962 20 20 20h520c11.038 0 20-8.962 20-20V60c0-11.038-8.962-20-20-20zm-40 70v220c0 5.52-4.48 10-10 10H70c-5.52 0-10-4.48-10-10V110c0-5.52 4.48-10 10-10h420c5.52 0 10 4.48 10 10z"></path></svg>