<?xml version="1.0" encoding="iso-8859-1"?>
<!-- Generator: Adobe Illustrator 18.0.0, SVG Export Plug-In . SVG Version: 6.00 Build 0)  -->
<!DOCTYPE svg PUBLIC "-//W3C//DTD SVG 1.1//EN" "http://www.w3.org/Graphics/SVG/1.1/DTD/svg11.dtd">
<svg version="1.1" id="Capa_1" xmlns="http://www.w3.org/2000/svg" xmlns:xlink="http://www.w3.org/1999/xlink" x="0px" y="0px"
	 viewBox="0 0 290.262 290.262" style="enable-background:new 0 0 290.262 290.262;" xml:space="preserve">
<path id="_x34_9-HD_icon" d="M278.743,33.612H11.519C5.157,33.612,0,38.77,0,45.131v200c0,6.361,5.157,11.519,11.519,11.519h267.225
	c6.361,0,11.519-5.157,11.519-11.519v-200C290.262,38.77,285.104,33.612,278.743,33.612z M104.063,190.131l9.989-34.973H76.771
	l-9.993,34.973H43.896l25.709-90h22.888L81.914,137.16h37.279l10.579-37.029h22.89l-25.715,90H104.063z M244.33,145.131
	c-7.604,26.613-32.658,45-61.585,45h-37.796l16.986-59.461h22.882l-11.768,41.199h16.327c14.014,0,27.128-10.797,31.644-26.607
	c4.555-15.945-2.865-26.871-17.393-26.871h-38.188l5.217-18.26h38.7C237.641,100.131,251.965,118.391,244.33,145.131z"/>
<g>
</g>
<g>
</g>
<g>
</g>
<g>
</g>
<g>
</g>
<g>
</g>
<g>
</g>
<g>
</g>
<g>
</g>
<g>
</g>
<g>
</g>
<g>
</g>
<g>
</g>
<g>
</g>
<g>
</g>
</svg>
