<svg xmlns="http://www.w3.org/2000/svg" xmlns:xlink="http://www.w3.org/1999/xlink" width="80px" height="80px" viewBox="0 0 80 80" version="1.1">
    <!-- Generator: Sketch 59.1 (86144) - https://sketch.com -->
    <title>Icons/Tomatometer &amp; AS/rotten</title>
    <desc>Created with Sketch.</desc>
    <defs>
        <polygon id="path-1" points="0 0.161950465 79.7417075 0.161950465 79.7417075 77.522807 0 77.522807"/>
    </defs>
    <g id="Icons/Tomatometer-&amp;-AS/rotten" stroke="none" stroke-width="1" fill="none" fill-rule="evenodd">
        <g id="Group-5">
            <rect id="Rectangle-Copy" fill="#000000" opacity="0" x="0" y="0" width="80" height="80"/>
            <g id="RT_Rotten_Splat_RGB-(1)" transform="translate(0.000000, 1.228070)">
                <g id="Group-3">
                    <mask id="mask-2" fill="white">
                        <use xlink:href="#path-1"/>
                    </mask>
                    <g id="Clip-2"/>
                    <path d="M71.4638596,70.225614 C56.3459649,71.0192982 53.2568421,53.7203509 47.325614,53.8435088 C44.7982456,53.8964912 42.8063158,56.5389474 43.6810526,59.6185965 C44.1621053,61.3115789 45.4964912,63.794386 46.337193,65.3350877 C49.302807,70.7719298 44.9185965,76.9245614 39.7880702,77.4449123 C31.2621053,78.3098246 27.705614,73.3638596 27.925614,68.3007018 C28.1729825,62.6168421 32.9922807,56.8091228 28.0494737,54.3378947 C22.8694737,51.7480702 18.6585965,61.8754386 13.7017544,64.1357895 C9.2154386,66.1817544 2.9877193,64.5954386 0.773684211,59.6136842 C-0.781403509,56.1129825 -0.498596491,49.3722807 6.42526316,46.8003509 C10.7501754,45.1940351 20.3880702,48.9010526 20.8824561,44.205614 C21.4522807,38.7929825 10.7575439,38.3364912 7.53754386,37.0385965 C1.84,34.7424561 -1.52280702,29.8291228 1.11192982,24.5582456 C3.08877193,20.6045614 8.90526316,18.9957895 13.3449123,20.7277193 C18.6635088,22.8024561 19.517193,28.3189474 22.2421053,30.6129825 C24.5894737,32.5901754 27.8021053,32.8375439 29.9031579,31.4782456 C31.4526316,30.4754386 31.9684211,28.2729825 31.3838596,26.2610526 C30.6084211,23.5901754 28.5505263,21.9235088 26.542807,20.2905263 C22.9698246,17.3859649 17.925614,14.8884211 20.9768421,6.96035088 C23.4778947,0.463157895 30.8133333,0.229122807 30.8133333,0.229122807 C33.7277193,-0.0985964912 36.3375439,0.781403509 38.4642105,2.68140351 C41.3073684,5.22140351 41.8610526,8.61649123 41.3852632,12.2385965 C40.9505263,15.5449123 39.7803509,18.4407018 39.1701754,21.7164912 C38.4621053,25.5196491 40.4947368,29.3519298 44.3603509,29.5010526 C49.4449123,29.6975439 50.9694737,25.7894737 51.5915789,23.3122807 C52.5024561,19.6877193 53.6978947,16.322807 57.0617544,14.2035088 C61.8894737,11.1617544 68.5954386,11.8284211 71.7066667,17.674386 C74.1677193,22.3 73.3775439,28.6677193 69.6024561,32.1449123 C67.9087719,33.7045614 65.8722807,34.254386 63.6694737,34.2698246 C60.5105263,34.2922807 57.3529825,34.2147368 54.4207018,35.6929825 C52.4245614,36.6989474 51.5547368,38.3382456 51.5550877,40.5354386 C51.5550877,42.6768421 52.6698246,44.0754386 54.4761404,44.985614 C57.8782456,46.7003509 61.6336842,47.0508772 65.3087719,47.694386 C70.6382456,48.6277193 75.3242105,50.5049123 78.3326316,55.4505263 C78.3596491,55.4940351 78.3859649,55.5378947 78.4115789,55.5821053 C81.8666667,61.4375439 78.2533333,69.8687719 71.4638596,70.225614" id="Fill-1" fill="#0AC855" mask="url(#mask-2)"/>
                </g>
            </g>
        </g>
    </g>
</svg>
