<svg width="24" height="24" viewBox="0 0 24 24" fill="none" xmlns="http://www.w3.org/2000/svg">
<path d="M10 15C10 16.1046 10.8954 17 12 17C13.1046 17 14 16.1046 14 15C14 13.8955 13.1046 13 12 13C10.8954 13 10 13.8955 10 15Z" fill="#212135"/>
<path fill-rule="evenodd" clip-rule="evenodd" d="M9.25475 3.29585C8.73593 3.90106 8.29826 4.80117 8.09625 6.11873C9.23893 6.03499 10.534 6.00003 12 6.00003C21.882 6.00003 24 7.58853 24 15C24 22.4115 21.882 24 12 24C2.118 24 0 22.4115 0 15C0 9.40483 1.2071 7.12831 6.05055 6.34855C6.24904 4.4799 6.84072 3.03891 7.73632 1.99417C8.72894 0.836252 10.0202 0.252847 11.3237 0.0677451C12.6142 -0.115515 13.9285 0.0873823 15.049 0.503479C16.1559 0.914533 17.1712 1.57083 17.7957 2.39111C18.1302 2.83054 18.0452 3.45797 17.6057 3.79251C17.1663 4.12705 16.5389 4.04202 16.2043 3.60259C15.8764 3.17188 15.225 2.70228 14.3528 2.37838C13.4941 2.05952 12.5167 1.91839 11.6049 2.04788C10.706 2.17553 9.88415 2.56164 9.25475 3.29585ZM8 15C8 17.2092 9.79086 19 12 19C14.2091 19 16 17.2092 16 15C16 12.7909 14.2091 11 12 11C9.79086 11 8 12.7909 8 15Z" fill="#212135"/>
</svg>
