<svg width="24" height="24" viewBox="0 0 24 24" fill="none" xmlns="http://www.w3.org/2000/svg">
<path d="M11 20C11 19.9964 10.9969 19.9934 10.9933 19.9934C1.97266 19.8689 0 17.9476 0 10C0 1.76501 2.11798 0 12 0C21.882 0 24 1.76501 24 10C24 17.9476 22.0273 19.8689 13.0067 19.9934C13.0031 19.9934 13 19.9964 13 20V21C13 21.5523 13.4477 22 14 22H16C16.5523 22 17 22.4477 17 23C17 23.5523 16.5523 24 16 24H8C7.44769 24 7 23.5523 7 23C7 22.4477 7.44769 22 8 22H10C10.5523 22 11 21.5523 11 21V20Z" fill="#212135"/>
</svg>
