
<svg width="20px" height="16px" viewBox="0 0 20 16" version="1.1" xmlns="http://www.w3.org/2000/svg" xmlns:xlink="http://www.w3.org/1999/xlink">
    <g id="Page-1" stroke="none" stroke-width="1" fill="none" fill-rule="evenodd">
        <g id="trailer" fill="#000000" fill-rule="nonzero">
            <path d="M2,0 L4,4 L7,4 L5,0 L7,0 L9,4 L12,4 L10,0 L12,0 L14,4 L17,4 L15,0 L18,0 C18.55,0 19.0208333,0.195833333 19.4125,0.5875 C19.8041667,0.979166667 20,1.45 20,2 L20,14 C20,14.55 19.8041667,15.0208333 19.4125,15.4125 C19.0208333,15.8041667 18.55,16 18,16 L2,16 C1.45,16 0.979166667,15.8041667 0.5875,15.4125 C0.195833333,15.0208333 0,14.55 0,14 L0,2 C0,1.45 0.195833333,0.979166667 0.5875,0.5875 C0.979166667,0.195833333 1.45,0 2,0 Z M2,6 L2,14 L18,14 L18,6 L2,6 Z M2.0375,6 L2.0375,14 L2.0375,6 Z" id="Shape"></path>
        </g>
    </g>
</svg>
