<svg width="24" height="24" viewBox="0 0 24 24" fill="none" xmlns="http://www.w3.org/2000/svg">
<path fill-rule="evenodd" clip-rule="evenodd" d="M12 24C2.118 24 0 21.882 0 12C0 2.118 2.118 0 12 0C21.882 0 24 2.118 24 12C24 21.882 21.882 24 12 24ZM12 6C11.4477 6 11 6.44769 11 7V10.2468L8.11954 8.58374C7.64127 8.30762 7.02964 8.4715 6.75351 8.94977C6.47739 9.42804 6.64127 10.0397 7.11954 10.3158L9.94968 11.9498L7.11954 13.5837C6.64127 13.8599 6.47739 14.4715 6.75351 14.9498C7.0297 15.428 7.64127 15.5919 8.11954 15.3158L11 13.6528V17C11 17.5523 11.4477 18 12 18C12.5523 18 13 17.5523 13 17V13.7109L15.7798 15.3158C16.2581 15.5919 16.8697 15.428 17.1458 14.9498C17.422 14.4715 17.2581 13.8599 16.7798 13.5837L13.9497 11.9498L16.7798 10.3158C17.2581 10.0397 17.422 9.42804 17.1458 8.94977C16.8697 8.4715 16.2581 8.30762 15.7798 8.58374L13 10.1887V7C13 6.44769 12.5523 6 12 6Z" fill="#212135"/>
</svg>
