
<svg width="98px" height="24px" viewBox="0 0 98 24" version="1.1" xmlns="http://www.w3.org/2000/svg" xmlns:xlink="http://www.w3.org/1999/xlink">
    <g stroke="none" stroke-width="1" fill="none" fill-rule="evenodd">
        <g transform="translate(-140.000000, -28.000000)">
            <g transform="translate(140.000000, 28.000000)">
                <path d="M13.4257234,11.7847464 C14.2655218,11.0880453 14.6854209,10.0996248 14.6854209,8.8178273 C14.6854209,7.51448238 14.2655218,6.51390686 13.4257234,5.81775824 C12.5853726,5.12105711 11.3593775,4.7735353 9.74608071,4.7735353 L5.37028937,4.7735353 L5.37028937,12.8289694 L9.74608071,12.8289694 C11.3593775,12.8289694 12.5853726,12.480895 13.4257234,11.7847464 M15.3981445,1.42539193 C16.9119915,2.11049057 18.0777642,3.08288865 18.8954626,4.34258616 C19.7126085,5.60228366 20.1220102,7.09403071 20.1220102,8.8178273 C20.1220102,10.5200764 19.7126085,12.005746 18.8954626,13.275941 C18.0777642,14.547241 16.9119915,15.519639 15.3981445,16.1931352 C13.8842975,16.8677364 12.0997261,17.2047607 10.0444301,17.2047607 L5.37028937,17.2047607 L5.37028937,23.602698 L0,23.602698 L0,0.397743963 L10.0444301,0.397743963 C12.0997261,0.397743963 13.8842975,0.740845784 15.3981445,1.42539193" fill="#FFFFFF"></path>
                <polygon fill="#FFFFFF" points="40.2440204 19.2931513 40.2440204 23.6026428 22.2767559 23.6026428 22.2767559 0.397688713 39.8130712 0.397688713 39.8130712 4.70718018 27.6138953 4.70718018 27.6138953 9.74597021 38.387624 9.74597021 38.387624 13.9228619 27.6138953 13.9228619 27.6138953 19.2931513"></polygon>
                <polygon fill="#FFFFFF" points="49.1180368 4.7733143 41.6924515 4.7733143 41.6924515 0.397522963 61.9139115 0.397522963 61.9139115 4.7733143 54.4883262 4.7733143 54.4883262 23.602477 49.1180368 23.602477"></polygon>
                <polygon fill="#ff8300" points="64.1413661 23.6023665 69.5122079 23.6023665 69.5122079 0.397412463 64.1413661 0.397412463"></polygon>
                <path d="M88.4727549,18.4810884 C89.5777527,17.8506872 90.445176,16.9727664 91.0755772,15.8451161 C91.7048735,14.7180184 92.0197979,13.4367734 92.0197979,12.0002762 C92.0197979,10.5637791 91.7048735,9.28198163 91.0755772,8.15488386 C90.445176,7.02778609 89.5777527,6.14931283 88.4727549,5.51946408 C87.3677571,4.88906282 86.1301595,4.57469095 84.7605147,4.57469095 C83.3903175,4.57469095 82.1527199,4.88906282 81.0477221,5.51946408 C79.9427243,6.14931283 79.0747485,7.02778609 78.4448997,8.15488386 C77.8156035,9.28198163 77.5006791,10.5637791 77.5006791,12.0002762 C77.5006791,13.4367734 77.8156035,14.7180184 78.4448997,15.8451161 C79.0747485,16.9727664 79.9427243,17.8506872 81.0477221,18.4810884 C82.1527199,19.1109372 83.3903175,19.4258616 84.7605147,19.4258616 C86.1301595,19.4258616 87.3677571,19.1109372 88.4727549,18.4810884 M78.2460001,22.4425056 C76.312254,21.4038076 74.798407,19.972283 73.7044591,18.1490366 C72.6110638,16.3263427 72.0640899,14.2765717 72.0640899,12.0002762 C72.0640899,9.72398075 72.6110638,7.67365731 73.7044591,5.85096342 C74.798407,4.02771703 76.312254,2.59674486 78.2460001,1.55804692 C80.1797463,0.519348972 82.351067,0 84.7605147,0 C87.16941,0 89.3352057,0.519348972 91.2579019,1.55804692 C93.1800456,2.59674486 94.6938926,4.02771703 95.7988904,5.85096342 C96.9038882,7.67365731 97.4563871,9.72398075 97.4563871,12.0002762 C97.4563871,14.2765717 96.9038882,16.3263427 95.7988904,18.1490366 C94.6938926,19.972283 93.1800456,21.4038076 91.2579019,22.4425056 C89.3352057,23.4812035 87.16941,24 84.7605147,24 C82.351067,24 80.1797463,23.4812035 78.2460001,22.4425056" fill="#ff8300"></path>
            </g>
        </g>
    </g>
</svg>