<svg width="24" height="24" viewBox="0 0 24 24" fill="none" xmlns="http://www.w3.org/2000/svg">
<path fill-rule="evenodd" clip-rule="evenodd" d="M0 12C0 21.882 2.118 24 12 24C21.882 24 24 21.882 24 12C24 2.118 21.882 0 12 0C2.118 0 0 2.118 0 12ZM9 9C9 8.44771 9.44771 8 10 8C10.5523 8 11 8.44771 11 9V15C11 15.5523 10.5523 16 10 16C9.44771 16 9 15.5523 9 15V9ZM14 8C13.4477 8 13 8.44771 13 9V15C13 15.5523 13.4477 16 14 16C14.5523 16 15 15.5523 15 15V9C15 8.44771 14.5523 8 14 8Z" fill="#212135"/>
</svg>
