<svg width="24" height="24" viewBox="0 0 24 24" fill="none" xmlns="http://www.w3.org/2000/svg">
<path d="M13.7397 10.0538C15.1756 10.9188 15.8936 11.3513 15.8936 12C15.8936 12.6487 15.1756 13.0812 13.7397 13.9462L12.1243 14.9192C10.6884 15.7842 9.97048 16.2167 9.43202 15.8923C8.89355 15.5679 8.89355 14.703 8.89355 12.9731V11.0269C8.89355 9.29701 8.89355 8.43205 9.43202 8.10769C9.97048 7.78333 10.6884 8.21581 12.1243 9.08077L13.7397 10.0538Z" fill="#212135"/>
<path fill-rule="evenodd" clip-rule="evenodd" d="M12 24C2.118 24 0 21.882 0 12C0 2.118 2.118 0 12 0C21.882 0 24 2.118 24 12C24 21.882 21.882 24 12 24ZM14.8719 15.599C15.5013 15.2202 16.1536 14.8276 16.6309 14.4323C17.1596 13.9943 17.8936 13.2141 17.8936 12C17.8936 10.7859 17.1596 10.0057 16.6309 9.56774C16.1536 9.17242 15.5013 8.77983 14.8719 8.40101L13.0544 7.30617C12.427 6.92792 11.7738 6.53407 11.2037 6.29914C10.5841 6.04376 9.49432 5.73533 8.40003 6.39451C7.33758 7.03451 7.07294 8.11096 6.98081 8.75848C6.89308 9.37501 6.89331 10.1482 6.89353 10.9113V13.0887C6.89331 13.8518 6.89308 14.625 6.98081 15.2415C7.07294 15.889 7.33758 16.9655 8.40003 17.6055C9.49432 18.2647 10.5841 17.9562 11.2037 17.7009C11.7738 17.4659 12.427 17.0721 13.0544 16.6938L14.8719 15.599Z" fill="#212135"/>
</svg>
