<svg width="24" height="24" viewBox="0 0 24 24" fill="none" xmlns="http://www.w3.org/2000/svg">
<path d="M5.5 11C0.97075 11 0 10.0293 0 5.5C0 0.97075 0.97075 0 5.5 0C10.0293 0 11 0.97075 11 5.5C11 10.0293 10.0293 11 5.5 11Z" fill="#212135"/>
<path d="M5.5 24C0.97075 24 0 23.0292 0 18.5C0 13.9707 0.97075 13 5.5 13C10.0293 13 11 13.9707 11 18.5C11 23.0292 10.0293 24 5.5 24Z" fill="#212135"/>
<path d="M13 18.5C13 23.0292 13.9707 24 18.5 24C23.0293 24 24 23.0292 24 18.5C24 13.9707 23.0293 13 18.5 13C13.9707 13 13 13.9707 13 18.5Z" fill="#212135"/>
<path d="M19.5 2C19.5 1.44772 19.0523 1 18.5 1C17.9477 1 17.5 1.44772 17.5 2V4.5H15C14.4477 4.5 14 4.94772 14 5.5C14 6.05228 14.4477 6.5 15 6.5H17.5V9C17.5 9.55228 17.9477 10 18.5 10C19.0523 10 19.5 9.55228 19.5 9V6.5H22C22.5523 6.5 23 6.05228 23 5.5C23 4.94772 22.5523 4.5 22 4.5H19.5V2Z" fill="#212135"/>
</svg>
