<svg viewBox="0 0 560 560" xmlns="http://www.w3.org/2000/svg" stroke-miterlimit="1.414" stroke-linejoin="round" id="plex-icon-search-560" aria-hidden="true" class="PlexIcon-plexIcon-8Tamaj QuickSearchInput-searchIcon-38PAh5"><path d="M351.883,407.883C315.613,433.168 271.525,448 224,448C100.371,448 0,347.629 0,224C0,100.371 100.371,0 224,0C347.629,0 448,100.371 448,224C448,271.525 433.168,315.613 407.883,351.883L560,504L504,560L351.883,407.883ZM56,224C56,316.722 131.278,392 224,392C316.722,392 392,316.722 392,224C392,131.278 316.722,56 224,56C131.278,56 56,131.278 56,224Z"></path></svg>