
<svg width="24px" height="23px" viewBox="0 0 24 23" version="1.1" xmlns="http://www.w3.org/2000/svg" xmlns:xlink="http://www.w3.org/1999/xlink">
    <g id="Desktop" stroke="none" stroke-width="1" fill="none" fill-rule="evenodd">
        <g id="TV-Info" transform="translate(-804.000000, -419.000000)" fill="#FF8300" fill-rule="nonzero">
            <g id="like" transform="translate(804.000000, 419.000000)">
                <path d="M3,9.00062766 L1,9.00062766 C0.44771525,9.00062766 0,9.44834291 0,10.0006277 L0,22.0006277 C0,22.5529124 0.44771525,23.0006277 1,23.0006277 L4,23.0006277 L4,10.0006277 C4,9.44834291 3.55228475,9.00062766 3,9.00062766 Z" id="Path"></path>
                <path d="M21.882,8.13362766 C21.5963171,8.04538519 21.2990007,8.00055177 21,8.00062766 L15,8.00062766 L15,5.00062766 C15,1.17662766 12.411,0.0586276644 11.042,0.00062766441 C10.7701334,-0.00892285 10.5057727,0.0908426702 10.308,0.277627664 C10.1109698,0.466497487 9.99969925,0.727694321 10,1.00062766 L10,5.63862766 L6,10.4386277 L6,23.0006593 L18.23,23.0006593 C19.5496771,23.0066737 20.7167066,22.1454303 21.1,20.8826277 L23.869,11.8826277 C24.102729,11.1219868 24.0246849,10.2996481 23.65204,9.59655524 C23.2793952,8.89346238 22.642682,8.36722272 21.882,8.13362766 Z" id="Path"></path>
            </g>
        </g>
    </g>
</svg>