
<svg width="24px" height="24px" viewBox="0 0 24 24" version="1.1" xmlns="http://www.w3.org/2000/svg" xmlns:xlink="http://www.w3.org/1999/xlink">
    <g id="Desktop" stroke="none" stroke-width="1" fill="none" fill-rule="evenodd">
        <g id="TV-Info" transform="translate(-868.000000, -419.000000)" fill="#FF8300" fill-rule="nonzero">
            <g id="thumb-down" transform="translate(868.000000, 419.000000)">
                <path d="M4,13.0000438 L1,13.0000438 C0.44771525,13.0000438 0,12.5523285 0,12.0000438 L0,1.00004379 C0,0.447759038 0.44771525,4.37880655e-05 1,4.37880655e-05 L4,4.37880655e-05 L4,13.0000438 Z" id="Path"></path>
                <path d="M22.539,13.6050438 C21.7782789,14.4914682 20.6680941,15.0010792 19.5,15.0000438 L13,15.0000438 L13,20.0000438 C13,22.2060438 12.206,24.0000438 10,24.0000438 C9.5489279,24.0000438 9.15363196,23.6982363 9.035,23.2630438 L6,13.0000438 L6,0 L18.426,0 C20.4038632,-0.00916721266 22.088235,1.43579713 22.38,3.39204379 L23.456,10.3920438 C23.6337075,11.5455355 23.2987658,12.7191098 22.539,13.6050438 Z" id="Path"></path>
            </g>
        </g>
    </g>
</svg>